<?xml version="1.0" encoding="utf-8"?>
<!-- Generator: Adobe Illustrator 15.1.0, SVG Export Plug-In . SVG Version: 6.00 Build 0)  -->
<!DOCTYPE svg PUBLIC "-//W3C//DTD SVG 1.1//EN" "http://www.w3.org/Graphics/SVG/1.1/DTD/svg11.dtd">
<svg version="1.1" xmlns="http://www.w3.org/2000/svg" xmlns:xlink="http://www.w3.org/1999/xlink" x="0px" y="0px" width="1400px"
	 height="600px" viewBox="0 0 1400 600" enable-background="new 0 0 1400 600" xml:space="preserve">
<g id="Symbol">
	<g>
		<polygon fill="#512833" points="493.805,502.897 143.777,439.043 207.63,89.004 557.659,152.857 493.805,502.897 		"/>
		<polygon fill="#934358" points="488.145,491.091 134,456.708 168.385,102.562 522.525,136.946 488.145,491.091 		"/>
		<polygon fill="#E5637C" points="482.649,474.731 126.838,474.731 126.838,118.921 482.649,118.921 482.649,474.731 		"/>
		<path fill="#FFFFFF" d="M252.564,365.283c0-2.059,1.286-5.157,3.869-9.289c2.58-4.128,4.904-6.193,6.969-6.193
			c0.202,0,1.858,0.982,4.953,2.94c3.099,1.967,7.536,3.925,13.318,5.887c5.777,1.965,12.745,2.941,20.903,2.941
			c8.153,0,14.865-2.323,20.129-6.967c5.266-4.647,7.897-10.943,7.897-18.892c0-7.944-2.323-14.138-6.969-18.58
			c-4.645-4.438-13.886-8.619-27.716-12.542c-13.833-3.92-23.844-8.928-30.038-15.019c-6.193-6.088-9.291-15.331-9.291-27.717
			c0-12.386,4.748-22.761,14.246-31.123c9.493-8.361,21.881-12.542,37.16-12.542c10.53,0,19.921,1.344,28.181,4.026
			c8.256,2.687,12.387,5.681,12.387,8.98c0,2.686-1.189,6.145-3.561,10.375c-2.376,4.234-4.491,6.349-6.349,6.349
			c-0.208,0-1.547-0.62-4.025-1.858c-7.021-3.717-14.918-5.576-23.69-5.576c-8.777,0-15.59,1.811-20.439,5.42
			c-4.853,3.613-7.277,8.313-7.277,14.089c0,5.782,1.806,10.326,5.42,13.627c3.609,3.305,9.754,6.299,18.426,8.979
			c19.403,5.991,32.564,12.542,39.483,19.666c6.916,7.122,10.375,17.858,10.375,32.207c0,14.352-5.11,26.166-15.329,35.456
			c-10.22,9.292-22.451,13.936-36.696,13.936c-14.246,0-26.532-2.114-36.852-6.348C257.72,373.288,252.564,369.211,252.564,365.283
			L252.564,365.283z"/>
	</g>
</g>
<g id="Word">
	<g>
		<g>
			<defs>
				<rect id="SVGID_1_" x="612.006" y="166.099" width="608.767" height="205.179"/>
			</defs>
			<clipPath id="SVGID_2_">
				<use xlink:href="#SVGID_1_"  overflow="visible"/>
			</clipPath>
			<path clip-path="url(#SVGID_2_)" fill="#252525" d="M611.891,355.244c0-1.779,1.111-4.452,3.34-8.017
				c2.226-3.562,4.231-5.345,6.013-5.345c0.175,0,1.604,0.846,4.276,2.537c2.672,1.697,6.501,3.388,11.491,5.077
				c4.985,1.696,10.999,2.541,18.039,2.541c7.036,0,12.827-2.006,17.37-6.013c4.543-4.01,6.815-9.443,6.815-16.303
				c0-6.856-2.004-12.202-6.013-16.034c-4.009-3.829-11.985-7.438-23.919-10.824c-11.938-3.382-20.577-7.703-25.921-12.962
				c-5.345-5.252-8.018-13.227-8.018-23.916c0-10.689,4.097-19.642,12.292-26.858c8.193-7.216,18.883-10.823,32.069-10.823
				c9.086,0,17.191,1.16,24.319,3.475c7.124,2.317,10.689,4.901,10.689,7.75c0,2.318-1.027,5.303-3.073,8.953
				c-2.051,3.654-3.875,5.479-5.479,5.479c-0.18,0-1.336-0.534-3.473-1.604c-6.059-3.207-12.874-4.81-20.445-4.81
				c-7.574,0-13.454,1.561-17.638,4.677c-4.188,3.118-6.28,7.173-6.28,12.159c0,4.989,1.558,8.909,4.676,11.758
				c3.115,2.852,8.419,5.437,15.901,7.749c16.745,5.17,28.103,10.826,34.074,16.971c5.967,6.146,8.952,15.412,8.952,27.794
				c0,12.384-4.409,22.581-13.229,30.6c-8.818,8.016-19.375,12.023-31.668,12.023c-12.293,0-22.896-1.823-31.801-5.479
				C616.343,362.149,611.891,358.63,611.891,355.244L611.891,355.244z"/>
		</g>
		<path fill="#252525" d="M728.141,334.399v-159.81c0-3.917,3.562-5.88,10.688-5.88h1.07c7.123,0,10.688,1.962,10.688,5.88v157.672
			c0,13.185,4.811,19.776,14.432,19.776c3.026,0,5.612-0.224,7.749-0.67c2.139-0.44,3.384-0.668,3.743-0.668
			c1.603,0,2.938,1.649,4.008,4.945c1.068,3.298,1.604,5.837,1.604,7.615c0,5.346-6.506,8.017-19.509,8.017
			c-8.911,0-16.883-2.713-23.918-8.149C731.656,357.694,728.141,348.121,728.141,334.399L728.141,334.399z"/>
		<path fill="#252525" d="M803.234,365.291v-131.96c0-3.916,3.562-5.878,10.689-5.878h1.069c7.123,0,10.688,1.962,10.688,5.878
			v131.96c0,3.921-3.565,5.878-10.688,5.878h-1.069C806.796,371.169,803.234,369.212,803.234,365.291L803.234,365.291z"/>
		<path fill="#252525" d="M880.467,297.786c0,35.992,11.578,53.985,34.741,53.985c11.577,0,22.982-6.147,34.205-18.439v-73.225
			c-9.62-8.017-20.399-12.025-32.334-12.025h-1.604c-11.403,0.179-20.089,4.542-26.057,13.094
			C883.447,269.726,880.467,281.931,880.467,297.786L880.467,297.786z M951.284,351.235c-12.826,13.361-27.081,20.042-42.757,20.042
			c-15.681,0-28.194-6.589-37.548-19.776c-9.354-13.181-14.031-30.104-14.031-50.775v-2.403c0-21.915,4.987-39.06,14.966-51.444
			c9.977-12.381,22.448-18.574,37.414-18.574c14.965,0,28.328,4.543,40.085,13.629v-67.344c0-3.917,3.563-5.88,10.691-5.88h1.068
			c7.124,0,10.69,1.962,10.69,5.88v155.533c0,10.69,0.44,18.441,1.337,23.251c1.243,6.594,1.87,10.068,1.87,10.423
			c0,2.139-1.697,3.699-5.078,4.677c-3.388,0.981-6.015,1.469-7.884,1.469c-1.87,0-3.165-0.18-3.874-0.534
			c-0.716-0.354-1.384-0.977-2.006-1.87c-0.626-0.89-1.114-1.738-1.47-2.539c-0.358-0.801-0.713-1.913-1.069-3.34
			c-0.358-1.426-0.667-2.54-0.935-3.341c-0.269-0.803-0.534-2.047-0.8-3.741C951.686,352.884,951.461,351.771,951.284,351.235
			L951.284,351.235z"/>
		<path fill="#252525" d="M1092.234,289.77c0-28.147-10.688-42.224-32.068-42.224c-22.983,0-35.455,14.076-37.414,42.224H1092.234
			L1092.234,289.77z M1014.735,353.906c-10.691-11.578-16.035-29.262-16.035-53.046c0-23.785,5.252-41.823,15.769-54.116
			c10.508-12.293,25.474-18.439,44.896-18.439c37.767,0,56.654,23.25,56.654,69.75c0,1.604-1.07,3.833-3.207,6.681
			c-2.138,2.851-4.008,4.275-5.612,4.275h-84.448c1.069,14.791,4.897,25.656,11.491,32.603c6.589,6.95,16.479,10.425,29.663,10.425
			c12.115,0,23.25-2.85,33.407-8.553c3.38-1.779,5.252-2.673,5.611-2.673c1.777,0,3.781,1.783,6.012,5.346
			c2.228,3.566,3.341,6.238,3.341,8.017c0,3.566-4.856,7.308-14.562,11.225c-9.716,3.921-20.893,5.878-33.54,5.878
			C1041.9,371.277,1025.424,365.49,1014.735,353.906L1014.735,353.906z"/>
		<path fill="#252525" d="M1130.713,355.244c0-1.779,1.11-4.452,3.34-8.017c2.227-3.562,4.23-5.345,6.014-5.345
			c0.176,0,1.604,0.846,4.277,2.537c2.672,1.697,6.5,3.388,11.491,5.077c4.984,1.696,10.998,2.541,18.037,2.541
			c7.036,0,12.828-2.006,17.371-6.013c4.543-4.01,6.815-9.443,6.815-16.303c0-6.856-2.005-12.202-6.013-16.034
			c-4.01-3.829-11.985-7.438-23.919-10.824c-11.938-3.382-20.577-7.703-25.923-12.962c-5.344-5.252-8.017-13.227-8.017-23.916
			c0-10.689,4.096-19.642,12.292-26.858c8.194-7.216,18.884-10.823,32.069-10.823c9.086,0,17.191,1.16,24.32,3.475
			c7.123,2.317,10.688,4.901,10.688,7.75c0,2.318-1.026,5.303-3.072,8.953c-2.051,3.654-3.874,5.479-5.479,5.479
			c-0.18,0-1.336-0.534-3.473-1.604c-6.061-3.207-12.876-4.81-20.445-4.81c-7.574,0-13.452,1.561-17.639,4.677
			c-4.187,3.118-6.279,7.173-6.279,12.159c0,4.989,1.557,8.909,4.678,11.758c3.115,2.852,8.416,5.437,15.899,7.749
			c16.745,5.17,28.104,10.826,34.075,16.971c5.967,6.146,8.95,15.412,8.95,27.794c0,12.384-4.409,22.581-13.228,30.6
			c-8.818,8.016-19.375,12.023-31.667,12.023c-12.294,0-22.895-1.823-31.804-5.479
			C1135.163,362.149,1130.713,358.63,1130.713,355.244L1130.713,355.244z"/>
		<path fill="#252525" d="M829.641,181.28c0,8.385-6.797,15.182-15.182,15.182s-15.182-6.797-15.182-15.182
			c0-8.385,6.797-15.182,15.182-15.182S829.641,172.895,829.641,181.28L829.641,181.28z"/>
	</g>
</g>
</svg>
